<svg width="21" height="22" viewBox="0 0 21 22" fill="none" xmlns="http://www.w3.org/2000/svg">
<path d="M14.311 7.38479C14.4928 7.21172 14.7347 7.11605 14.9857 7.11795C15.2367 7.11985 15.4771 7.21917 15.6562 7.39496C15.8354 7.57076 15.9392 7.80927 15.9459 8.06017C15.9525 8.31107 15.8614 8.55473 15.6918 8.73974L10.543 15.179C10.4544 15.2744 10.3476 15.3509 10.2288 15.404C10.11 15.4571 9.98171 15.4858 9.85161 15.4882C9.72151 15.4906 9.59226 15.4667 9.47158 15.418C9.35091 15.3694 9.24129 15.2968 9.14929 15.2048L5.7348 11.7903C5.63971 11.7017 5.56344 11.5949 5.51054 11.4762C5.45765 11.3574 5.4292 11.2293 5.42691 11.0993C5.42462 10.9694 5.44852 10.8403 5.4972 10.7198C5.54587 10.5993 5.61832 10.4898 5.71023 10.3979C5.80213 10.306 5.9116 10.2335 6.03212 10.1849C6.15263 10.1362 6.28171 10.1123 6.41166 10.1146C6.54161 10.1169 6.66977 10.1453 6.78849 10.1982C6.9072 10.2511 7.01405 10.3274 7.10266 10.4225L9.80483 13.1234L14.2865 7.41318C14.2946 7.40324 14.3032 7.39376 14.3123 7.38479H14.311Z" fill="#37833B"/>
</svg>
