<svg width="28" height="28" viewBox="0 0 28 28" fill="none" xmlns="http://www.w3.org/2000/svg">
<path d="M12.7631 14L10.2886 11.5255C10.1292 11.3605 10.041 11.1394 10.043 10.91C10.045 10.6806 10.137 10.4611 10.2993 10.2989C10.4615 10.1367 10.6809 10.0446 10.9104 10.0427C11.1398 10.0407 11.3608 10.1289 11.5258 10.2882L14.0003 12.7627L16.4748 10.2882C16.5556 10.2047 16.6521 10.138 16.7589 10.0922C16.8656 10.0463 16.9804 10.0222 17.0966 10.0212C17.2128 10.0201 17.328 10.0423 17.4356 10.0863C17.5431 10.1303 17.6408 10.1952 17.7229 10.2774C17.8051 10.3596 17.8701 10.4573 17.9141 10.5648C17.9581 10.6723 17.9802 10.7875 17.9792 10.9037C17.9782 11.0199 17.954 11.1347 17.9082 11.2415C17.8623 11.3482 17.7957 11.4448 17.7121 11.5255L15.2376 14L17.7121 16.4745C17.7957 16.5552 17.8623 16.6518 17.9082 16.7585C17.954 16.8653 17.9782 16.9801 17.9792 17.0963C17.9802 17.2125 17.9581 17.3277 17.9141 17.4352C17.8701 17.5427 17.8051 17.6404 17.7229 17.7226C17.6408 17.8048 17.5431 17.8697 17.4356 17.9137C17.328 17.9577 17.2128 17.9799 17.0966 17.9788C16.9804 17.9778 16.8656 17.9537 16.7589 17.9078C16.6521 17.862 16.5556 17.7953 16.4748 17.7118L14.0003 15.2373L11.5258 17.7118C11.3608 17.8711 11.1398 17.9593 10.9104 17.9573C10.6809 17.9554 10.4615 17.8633 10.2993 17.7011C10.137 17.5389 10.045 17.3194 10.043 17.09C10.041 16.8606 10.1292 16.6395 10.2886 16.4745L12.7631 14Z" fill="#2264D1"/>
<path d="M14 24.5C15.3789 24.5 16.7443 24.2284 18.0182 23.7007C19.2921 23.1731 20.4496 22.3996 21.4246 21.4246C22.3996 20.4496 23.1731 19.2921 23.7007 18.0182C24.2284 16.7443 24.5 15.3789 24.5 14C24.5 12.6211 24.2284 11.2557 23.7007 9.98182C23.1731 8.70791 22.3996 7.55039 21.4246 6.57538C20.4496 5.60036 19.2921 4.82694 18.0182 4.29926C16.7443 3.77159 15.3789 3.5 14 3.5C11.2152 3.5 8.54451 4.60625 6.57538 6.57538C4.60625 8.54451 3.5 11.2152 3.5 14C3.5 16.7848 4.60625 19.4555 6.57538 21.4246C8.54451 23.3938 11.2152 24.5 14 24.5ZM14 26.25C10.7511 26.25 7.63526 24.9594 5.33794 22.6621C3.04062 20.3647 1.75 17.2489 1.75 14C1.75 10.7511 3.04062 7.63526 5.33794 5.33794C7.63526 3.04062 10.7511 1.75 14 1.75C17.2489 1.75 20.3647 3.04062 22.6621 5.33794C24.9594 7.63526 26.25 10.7511 26.25 14C26.25 17.2489 24.9594 20.3647 22.6621 22.6621C20.3647 24.9594 17.2489 26.25 14 26.25Z" fill="#2264D1"/>
</svg>
