<svg width="14" height="13" viewBox="0 0 14 13" fill="none" xmlns="http://www.w3.org/2000/svg">
<path d="M7.00554 10.2566L6.94003 10.3221L6.86796 10.2566C3.75607 7.43294 1.69894 5.5658 1.69894 3.67246C1.69894 2.36219 2.68165 1.37949 3.99192 1.37949C5.00083 1.37949 5.98353 2.03462 6.33075 2.92561H7.5493C7.89653 2.03462 8.87923 1.37949 9.88814 1.37949C11.1984 1.37949 12.1811 2.36219 12.1811 3.67246C12.1811 5.5658 10.124 7.43294 7.00554 10.2566ZM9.88814 0.0692139C8.7482 0.0692139 7.65413 0.599874 6.94003 1.4319C6.22593 0.599874 5.13185 0.0692139 3.99192 0.0692139C1.9741 0.0692139 0.388672 1.64809 0.388672 3.67246C0.388672 6.14232 2.61613 8.16669 5.99008 11.2262L6.94003 12.091L7.88997 11.2262C11.2639 8.16669 13.4914 6.14232 13.4914 3.67246C13.4914 1.64809 11.906 0.0692139 9.88814 0.0692139Z" />
</svg>
