<svg width="20" height="20" viewBox="0 0 20 20" fill="none" xmlns="http://www.w3.org/2000/svg">
<path d="M17.0727 14.2835L13.6852 11.2035C13.5251 11.0579 13.3147 10.9803 13.0984 10.987C12.8821 10.9937 12.6769 11.0841 12.5261 11.2393L10.5319 13.2901C10.0519 13.1985 9.0869 12.8976 8.09357 11.9068C7.10023 10.9126 6.7994 9.94512 6.71023 9.46845L8.7594 7.47345C8.91474 7.32272 9.00535 7.11747 9.01204 6.90112C9.01872 6.68478 8.94097 6.47432 8.79523 6.31428L5.71607 2.92762C5.57027 2.76708 5.36763 2.6697 5.1512 2.65617C4.93476 2.64263 4.72157 2.714 4.5569 2.85512L2.74857 4.40595C2.60449 4.55055 2.5185 4.74299 2.5069 4.94678C2.4944 5.15512 2.25607 10.0901 6.08273 13.9185C9.42107 17.256 13.6027 17.5001 14.7544 17.5001C14.9227 17.5001 15.0261 17.4951 15.0536 17.4935C15.2573 17.482 15.4497 17.3957 15.5936 17.251L17.1436 15.4418C17.2852 15.2776 17.3571 15.0646 17.3439 14.8482C17.3307 14.6318 17.2334 14.4291 17.0727 14.2835Z" fill="#2264D1"/>
</svg>
