<svg width="21" height="19" viewBox="0 0 21 19" fill="none" xmlns="http://www.w3.org/2000/svg">
<path d="M4.73432 3.03125C4.73432 2.45938 4.95743 1.91093 5.35456 1.50655C5.7517 1.10218 6.29033 0.875 6.85196 0.875H13.9108C14.4724 0.875 15.0111 1.10218 15.4082 1.50655C15.8053 1.91093 16.0284 2.45938 16.0284 3.03125V3.75H17.4402C18.189 3.75 18.9072 4.0529 19.4367 4.59207C19.9663 5.13124 20.2637 5.8625 20.2637 6.625V13.0938C20.2637 13.6656 20.0406 14.2141 19.6435 14.6184C19.2463 15.0228 18.7077 15.25 18.1461 15.25H16.1696V15.9688C16.1696 16.5406 15.9465 17.0891 15.5494 17.4935C15.1522 17.8978 14.6136 18.125 14.052 18.125H6.85196C6.29033 18.125 5.7517 17.8978 5.35456 17.4935C4.95743 17.0891 4.73432 16.5406 4.73432 15.9688V15.25H2.61667C2.05504 15.25 1.5164 15.0228 1.11927 14.6184C0.722132 14.2141 0.499023 13.6656 0.499023 13.0938V6.625C0.499023 5.8625 0.796502 5.13124 1.32602 4.59207C1.85553 4.0529 2.57371 3.75 3.32255 3.75H4.73432V3.03125ZM14.6167 3.75V3.03125C14.6167 2.84063 14.5423 2.65781 14.4099 2.52302C14.2775 2.38823 14.098 2.3125 13.9108 2.3125H6.85196C6.66475 2.3125 6.48521 2.38823 6.35283 2.52302C6.22045 2.65781 6.14608 2.84063 6.14608 3.03125V3.75H14.6167ZM4.73432 5.1875H3.32255C2.94813 5.1875 2.58904 5.33895 2.32428 5.60853C2.05953 5.87812 1.91079 6.24375 1.91079 6.625V13.0938C1.91079 13.2844 1.98516 13.4672 2.11754 13.602C2.24991 13.7368 2.42946 13.8125 2.61667 13.8125H4.73432V13.0938C4.73432 12.5219 4.95743 11.9734 5.35456 11.5691C5.7517 11.1647 6.29033 10.9375 6.85196 10.9375H14.052C14.6136 10.9375 15.1522 11.1647 15.5494 11.5691C15.9465 11.9734 16.1696 12.5219 16.1696 13.0938V13.8125H18.1461C18.3333 13.8125 18.5128 13.7368 18.6452 13.602C18.7776 13.4672 18.852 13.2844 18.852 13.0938V6.625C18.852 6.24375 18.7032 5.87812 18.4385 5.60853C18.1737 5.33895 17.8146 5.1875 17.4402 5.1875H4.73432ZM6.85196 12.375C6.66475 12.375 6.48521 12.4507 6.35283 12.5855C6.22045 12.7203 6.14608 12.9031 6.14608 13.0938V15.9688C6.14608 16.1594 6.22045 16.3422 6.35283 16.477C6.48521 16.6118 6.66475 16.6875 6.85196 16.6875H14.052C14.2392 16.6875 14.4187 16.6118 14.5511 16.477C14.6835 16.3422 14.7578 16.1594 14.7578 15.9688V13.0938C14.7578 12.9031 14.6835 12.7203 14.5511 12.5855C14.4187 12.4507 14.2392 12.375 14.052 12.375H6.85196Z" fill="#2264D1"/>
</svg>
