<svg width="16" height="18" viewBox="0 0 16 18" fill="none" xmlns="http://www.w3.org/2000/svg">
<path d="M12.9286 17.4C12.4988 17.4053 12.0736 17.3055 11.6864 17.1084C11.2992 16.9114 10.9604 16.6224 10.6966 16.2642C10.4328 15.9059 10.2511 15.4881 10.1657 15.0434C10.0803 14.5987 10.0936 14.1392 10.2044 13.7008L5.16346 10.6595C4.73822 11.0708 4.20353 11.3341 3.63179 11.414C3.06005 11.4938 2.47887 11.3862 1.96696 11.1059C1.45505 10.8255 1.03712 10.3858 0.76978 9.84642C0.502436 9.30701 0.398587 8.69391 0.472294 8.09014C0.546 7.48637 0.793702 6.92109 1.18186 6.47085C1.57002 6.0206 2.07988 5.70714 2.64241 5.5729C3.20493 5.43867 3.79295 5.49015 4.32685 5.72037C4.86074 5.95059 5.31471 6.34843 5.62729 6.86002L10.2036 4.09837C10.1444 3.86223 10.113 3.61927 10.1102 3.37502C10.1046 2.68502 10.3244 2.01405 10.7326 1.4751C11.1408 0.936148 11.7125 0.562129 12.3514 0.41602C12.9903 0.269911 13.6574 0.360637 14.2403 0.672922C14.8232 0.985206 15.2864 1.49997 15.5519 2.13055C15.8173 2.76112 15.8688 3.46899 15.6977 4.13496C15.5266 4.80093 15.1433 5.38432 14.6124 5.7869C14.0815 6.18948 13.4353 6.38667 12.7828 6.34525C12.1303 6.30384 11.5112 6.02635 11.0298 5.55952L6.07744 8.54727C6.0718 8.76827 6.04281 8.98672 5.98966 9.20007L11.0306 12.2405C11.368 11.9137 11.7759 11.6787 12.2188 11.5559C12.6617 11.4332 13.1263 11.4263 13.5723 11.536C14.0183 11.6457 14.4322 11.8687 14.778 12.1855C15.1239 12.5023 15.3913 12.9033 15.5571 13.3539C15.7229 13.8045 15.7819 14.291 15.7292 14.7712C15.6765 15.2514 15.5136 15.7107 15.2546 16.1093C14.9957 16.508 14.6484 16.8339 14.2431 17.0588C13.8378 17.2838 13.3865 17.4009 12.9286 17.4ZM12.9286 13.15C12.6083 13.15 12.301 13.2844 12.0745 13.5235C11.848 13.7626 11.7207 14.0869 11.7207 14.425C11.7207 14.7632 11.848 15.0875 12.0745 15.3266C12.301 15.5657 12.6083 15.7 12.9286 15.7C13.249 15.7 13.5562 15.5657 13.7827 15.3266C14.0092 15.0875 14.1365 14.7632 14.1365 14.425C14.1365 14.0869 14.0092 13.7626 13.7827 13.5235C13.5562 13.2844 13.249 13.15 12.9286 13.15ZM3.26546 7.20002C2.9451 7.20002 2.63787 7.33435 2.41135 7.57346C2.18482 7.81257 2.05756 8.13687 2.05756 8.47502C2.05756 8.81317 2.18482 9.13747 2.41135 9.37658C2.63787 9.61569 2.9451 9.75002 3.26546 9.75002C3.58581 9.75002 3.89304 9.61569 4.11957 9.37658C4.34609 9.13747 4.47335 8.81317 4.47335 8.47502C4.47335 8.13687 4.34609 7.81257 4.11957 7.57346C3.89304 7.33435 3.58581 7.20002 3.26546 7.20002ZM12.9286 2.10002C12.77 2.10002 12.6129 2.133 12.4664 2.19707C12.3198 2.26115 12.1867 2.35506 12.0745 2.47346C11.9623 2.59185 11.8734 2.73241 11.8127 2.8871C11.752 3.04179 11.7207 3.20759 11.7207 3.37502C11.7207 3.54246 11.752 3.70825 11.8127 3.86294C11.8734 4.01763 11.9623 4.15819 12.0745 4.27658C12.1867 4.39498 12.3198 4.48889 12.4664 4.55297C12.6129 4.61704 12.77 4.65002 12.9286 4.65002C13.249 4.65002 13.5562 4.51569 13.7827 4.27658C14.0092 4.03747 14.1365 3.71317 14.1365 3.37502C14.1365 3.03687 14.0092 2.71257 13.7827 2.47346C13.5562 2.23435 13.249 2.10002 12.9286 2.10002Z" fill="#2264D1"/>
</svg>
