<svg width="88" height="20" viewBox="0 0 88 20" fill="none" xmlns="http://www.w3.org/2000/svg">
<path d="M9.73557 13.7648L13.8976 16.2296L12.7931 11.5843L16.4702 8.45875L11.628 8.04906L9.73557 3.67468L7.84315 8.04906L3.00098 8.45875L6.67133 11.5843L5.57359 16.2296L9.73557 13.7648Z" fill="#FB8200"/>
<path d="M26.7737 13.7648L30.9356 16.2296L29.8312 11.5843L33.5083 8.45875L28.6661 8.04906L26.7737 3.67468L24.8812 8.04906L20.0391 8.45875L23.7094 11.5843L22.6117 16.2296L26.7737 13.7648Z" fill="#FB8200"/>
<path d="M43.8108 13.7648L47.9727 16.2296L46.8683 11.5843L50.5454 8.45875L45.7032 8.04906L43.8108 3.67468L41.9183 8.04906L37.0762 8.45875L40.7465 11.5843L39.6488 16.2296L43.8108 13.7648Z" fill="#FB8200"/>
<path d="M60.8489 13.7648L65.0108 16.2296L63.9064 11.5843L67.5835 8.45875L62.7413 8.04906L60.8489 3.67468L58.9564 8.04906L54.1143 8.45875L57.7846 11.5843L56.6869 16.2296L60.8489 13.7648Z" fill="#FB8200"/>
<path d="M77.886 12.5005V5.90773L79.0376 8.76462L81.9873 9.02691L79.7514 11.0756L80.4182 14.1098L77.886 12.5005ZM84.6206 8.13369L79.7784 7.70126L77.886 3.00122L75.9935 7.70126L71.1514 8.13369L74.8217 11.4868L73.724 16.4704L77.886 13.8262L82.0479 16.4704L80.9435 11.4868L84.6206 8.13369Z" fill="#FB8200"/>
</svg>
